<mxfile host="app.diagrams.net" modified="2021-01-21T02:54:32.736Z" agent="5.0 (Windows NT 10.0; Win64; x64) AppleWebKit/537.36 (KHTML, like Gecko) Chrome/87.0.4280.141 Safari/537.36" etag="E-2_5JDzbq_QQ8BwCQ9n" version="14.2.6" type="github">
  <diagram name="Page-1" id="e7e014a7-5840-1c2e-5031-d8a46d1fe8dd">
    <mxGraphModel dx="868" dy="425" grid="1" gridSize="10" guides="1" tooltips="1" connect="1" arrows="1" fold="1" page="1" pageScale="1" pageWidth="1169" pageHeight="826" background="#ffffff" math="0" shadow="0">
      <root>
        <mxCell id="0" />
        <mxCell id="1" parent="0" />
        <mxCell id="BGA0kTI30EkoPx7SGpGE-41" value="elearning" style="shape=umlFrame;whiteSpace=wrap;html=1;" vertex="1" parent="1">
          <mxGeometry x="330" y="140" width="300" height="830" as="geometry" />
        </mxCell>
        <mxCell id="BGA0kTI30EkoPx7SGpGE-48" style="rounded=0;orthogonalLoop=1;jettySize=auto;html=1;endArrow=none;endFill=0;" edge="1" parent="1" source="BGA0kTI30EkoPx7SGpGE-42" target="BGA0kTI30EkoPx7SGpGE-45">
          <mxGeometry relative="1" as="geometry" />
        </mxCell>
        <mxCell id="BGA0kTI30EkoPx7SGpGE-49" style="edgeStyle=none;rounded=0;orthogonalLoop=1;jettySize=auto;html=1;entryX=0;entryY=0.5;entryDx=0;entryDy=0;endArrow=none;endFill=0;" edge="1" parent="1" source="BGA0kTI30EkoPx7SGpGE-42" target="BGA0kTI30EkoPx7SGpGE-46">
          <mxGeometry relative="1" as="geometry" />
        </mxCell>
        <mxCell id="BGA0kTI30EkoPx7SGpGE-54" style="edgeStyle=none;rounded=0;orthogonalLoop=1;jettySize=auto;html=1;entryX=0;entryY=0.5;entryDx=0;entryDy=0;endArrow=none;endFill=0;" edge="1" parent="1" source="BGA0kTI30EkoPx7SGpGE-42" target="BGA0kTI30EkoPx7SGpGE-51">
          <mxGeometry relative="1" as="geometry" />
        </mxCell>
        <mxCell id="BGA0kTI30EkoPx7SGpGE-57" style="edgeStyle=none;rounded=0;orthogonalLoop=1;jettySize=auto;html=1;entryX=0;entryY=0.5;entryDx=0;entryDy=0;endArrow=none;endFill=0;" edge="1" parent="1" source="BGA0kTI30EkoPx7SGpGE-42" target="BGA0kTI30EkoPx7SGpGE-52">
          <mxGeometry relative="1" as="geometry" />
        </mxCell>
        <mxCell id="BGA0kTI30EkoPx7SGpGE-59" style="edgeStyle=none;rounded=0;orthogonalLoop=1;jettySize=auto;html=1;entryX=0;entryY=0.5;entryDx=0;entryDy=0;endArrow=none;endFill=0;" edge="1" parent="1" source="BGA0kTI30EkoPx7SGpGE-42" target="BGA0kTI30EkoPx7SGpGE-58">
          <mxGeometry relative="1" as="geometry" />
        </mxCell>
        <mxCell id="BGA0kTI30EkoPx7SGpGE-69" style="edgeStyle=none;rounded=0;orthogonalLoop=1;jettySize=auto;html=1;entryX=0;entryY=0.5;entryDx=0;entryDy=0;endArrow=none;endFill=0;" edge="1" parent="1" source="BGA0kTI30EkoPx7SGpGE-42" target="BGA0kTI30EkoPx7SGpGE-67">
          <mxGeometry relative="1" as="geometry" />
        </mxCell>
        <mxCell id="BGA0kTI30EkoPx7SGpGE-42" value="Admin" style="shape=umlActor;verticalLabelPosition=bottom;verticalAlign=top;html=1;" vertex="1" parent="1">
          <mxGeometry x="190" y="210" width="30" height="60" as="geometry" />
        </mxCell>
        <mxCell id="BGA0kTI30EkoPx7SGpGE-55" style="edgeStyle=none;rounded=0;orthogonalLoop=1;jettySize=auto;html=1;entryX=0;entryY=0.5;entryDx=0;entryDy=0;endArrow=none;endFill=0;" edge="1" parent="1" source="BGA0kTI30EkoPx7SGpGE-43" target="BGA0kTI30EkoPx7SGpGE-51">
          <mxGeometry relative="1" as="geometry" />
        </mxCell>
        <mxCell id="BGA0kTI30EkoPx7SGpGE-56" style="edgeStyle=none;rounded=0;orthogonalLoop=1;jettySize=auto;html=1;entryX=0;entryY=0.5;entryDx=0;entryDy=0;endArrow=none;endFill=0;" edge="1" parent="1" source="BGA0kTI30EkoPx7SGpGE-43" target="BGA0kTI30EkoPx7SGpGE-52">
          <mxGeometry relative="1" as="geometry" />
        </mxCell>
        <mxCell id="BGA0kTI30EkoPx7SGpGE-60" style="edgeStyle=none;rounded=0;orthogonalLoop=1;jettySize=auto;html=1;entryX=0;entryY=0.5;entryDx=0;entryDy=0;endArrow=none;endFill=0;" edge="1" parent="1" source="BGA0kTI30EkoPx7SGpGE-43" target="BGA0kTI30EkoPx7SGpGE-58">
          <mxGeometry relative="1" as="geometry" />
        </mxCell>
        <mxCell id="BGA0kTI30EkoPx7SGpGE-68" style="edgeStyle=none;rounded=0;orthogonalLoop=1;jettySize=auto;html=1;entryX=0;entryY=0.5;entryDx=0;entryDy=0;endArrow=none;endFill=0;" edge="1" parent="1" source="BGA0kTI30EkoPx7SGpGE-43" target="BGA0kTI30EkoPx7SGpGE-67">
          <mxGeometry relative="1" as="geometry" />
        </mxCell>
        <mxCell id="BGA0kTI30EkoPx7SGpGE-43" value="Manager" style="shape=umlActor;verticalLabelPosition=bottom;verticalAlign=top;html=1;" vertex="1" parent="1">
          <mxGeometry x="190" y="610" width="30" height="60" as="geometry" />
        </mxCell>
        <mxCell id="BGA0kTI30EkoPx7SGpGE-50" style="edgeStyle=none;rounded=0;orthogonalLoop=1;jettySize=auto;html=1;endArrow=none;endFill=0;" edge="1" parent="1" source="BGA0kTI30EkoPx7SGpGE-44" target="BGA0kTI30EkoPx7SGpGE-45">
          <mxGeometry relative="1" as="geometry" />
        </mxCell>
        <mxCell id="BGA0kTI30EkoPx7SGpGE-62" style="edgeStyle=none;rounded=0;orthogonalLoop=1;jettySize=auto;html=1;entryX=0.993;entryY=0.614;entryDx=0;entryDy=0;entryPerimeter=0;endArrow=none;endFill=0;" edge="1" parent="1" source="BGA0kTI30EkoPx7SGpGE-44" target="BGA0kTI30EkoPx7SGpGE-61">
          <mxGeometry relative="1" as="geometry" />
        </mxCell>
        <mxCell id="BGA0kTI30EkoPx7SGpGE-64" style="edgeStyle=none;rounded=0;orthogonalLoop=1;jettySize=auto;html=1;entryX=1;entryY=0.5;entryDx=0;entryDy=0;endArrow=none;endFill=0;" edge="1" parent="1" source="BGA0kTI30EkoPx7SGpGE-44" target="BGA0kTI30EkoPx7SGpGE-63">
          <mxGeometry relative="1" as="geometry" />
        </mxCell>
        <mxCell id="BGA0kTI30EkoPx7SGpGE-66" style="edgeStyle=none;rounded=0;orthogonalLoop=1;jettySize=auto;html=1;entryX=1;entryY=0.5;entryDx=0;entryDy=0;endArrow=none;endFill=0;" edge="1" parent="1" source="BGA0kTI30EkoPx7SGpGE-44" target="BGA0kTI30EkoPx7SGpGE-65">
          <mxGeometry relative="1" as="geometry" />
        </mxCell>
        <mxCell id="BGA0kTI30EkoPx7SGpGE-44" value="Agent" style="shape=umlActor;verticalLabelPosition=bottom;verticalAlign=top;html=1;" vertex="1" parent="1">
          <mxGeometry x="760" y="410" width="30" height="60" as="geometry" />
        </mxCell>
        <mxCell id="BGA0kTI30EkoPx7SGpGE-45" value="Login" style="ellipse;whiteSpace=wrap;html=1;" vertex="1" parent="1">
          <mxGeometry x="410" y="160" width="140" height="70" as="geometry" />
        </mxCell>
        <mxCell id="BGA0kTI30EkoPx7SGpGE-46" value="Register" style="ellipse;whiteSpace=wrap;html=1;" vertex="1" parent="1">
          <mxGeometry x="410" y="250" width="140" height="70" as="geometry" />
        </mxCell>
        <mxCell id="BGA0kTI30EkoPx7SGpGE-51" value="Create Course" style="ellipse;whiteSpace=wrap;html=1;" vertex="1" parent="1">
          <mxGeometry x="410" y="340" width="140" height="70" as="geometry" />
        </mxCell>
        <mxCell id="BGA0kTI30EkoPx7SGpGE-52" value="Enroll Course" style="ellipse;whiteSpace=wrap;html=1;" vertex="1" parent="1">
          <mxGeometry x="410" y="430" width="140" height="70" as="geometry" />
        </mxCell>
        <mxCell id="BGA0kTI30EkoPx7SGpGE-58" value="Upload Materi" style="ellipse;whiteSpace=wrap;html=1;" vertex="1" parent="1">
          <mxGeometry x="410" y="520" width="140" height="70" as="geometry" />
        </mxCell>
        <mxCell id="BGA0kTI30EkoPx7SGpGE-61" value="Show Materi" style="ellipse;whiteSpace=wrap;html=1;" vertex="1" parent="1">
          <mxGeometry x="410" y="610" width="140" height="70" as="geometry" />
        </mxCell>
        <mxCell id="BGA0kTI30EkoPx7SGpGE-63" value="Take Quiz" style="ellipse;whiteSpace=wrap;html=1;" vertex="1" parent="1">
          <mxGeometry x="410" y="700" width="140" height="70" as="geometry" />
        </mxCell>
        <mxCell id="BGA0kTI30EkoPx7SGpGE-65" value="Show Score" style="ellipse;whiteSpace=wrap;html=1;" vertex="1" parent="1">
          <mxGeometry x="410" y="790" width="140" height="70" as="geometry" />
        </mxCell>
        <mxCell id="BGA0kTI30EkoPx7SGpGE-67" value="Show Report" style="ellipse;whiteSpace=wrap;html=1;" vertex="1" parent="1">
          <mxGeometry x="410" y="880" width="140" height="70" as="geometry" />
        </mxCell>
      </root>
    </mxGraphModel>
  </diagram>
</mxfile>
